<?xml version="1.0" encoding="UTF-8" standalone="no"?>
<!DOCTYPE svg PUBLIC "-//W3C//DTD SVG 1.1//EN" "http://www.w3.org/Graphics/SVG/1.1/DTD/svg11.dtd">
<svg width="100%" height="100%" viewBox="0 0 1823 1823" version="1.1" xmlns="http://www.w3.org/2000/svg" xmlns:xlink="http://www.w3.org/1999/xlink" xml:space="preserve" xmlns:serif="http://www.serif.com/" style="fill-rule:evenodd;clip-rule:evenodd;stroke-linejoin:round;stroke-miterlimit:2;">
    <g transform="matrix(1,0,0,1,-651.055,-651.053)">
        <g transform="matrix(4.16667,0,0,4.16667,0,0)">
            <g transform="matrix(0,-1,-1,0,375,156.253)">
                <path d="M-218.747,-218.747C-339.558,-218.747 -437.494,-120.811 -437.494,0C-437.494,120.811 -339.558,218.747 -218.747,218.747C-97.936,218.747 0,120.811 0,0C0,-120.811 -97.936,-218.747 -218.747,-218.747" style="fill:rgb(250,251,250);fill-rule:nonzero;"/>
            </g>
        </g>
        <g transform="matrix(4.16667,0,0,4.16667,0,0)">
            <g transform="matrix(1,0,0,1,375.541,255.467)">
                <path d="M0,239.071C-85.979,239.071 -155.937,174.947 -155.937,96.168C-155.937,17.39 -85.979,-46.699 0,-46.699C85.979,-46.699 155.937,17.39 155.937,96.168C155.937,174.947 85.979,239.071 0,239.071M-0.54,-74.89C-107.762,-74.89 -194.965,12.313 -194.965,119.535C-194.965,226.721 -107.762,313.961 -0.54,313.961C106.682,313.961 193.886,226.721 193.886,119.535C193.886,12.313 106.682,-74.89 -0.54,-74.89" style="fill-rule:nonzero;"/>
            </g>
        </g>
        <g transform="matrix(4.16667,0,0,4.16667,0,0)">
            <g transform="matrix(1,0,0,1,500.766,351.635)">
                <path d="M0,0C0,61.388 -56.743,111.723 -109.887,116.115C-110.751,116.187 -111.579,116.259 -112.443,116.259C-114.243,116.367 -116.079,116.403 -117.915,116.403L-118.06,116.403C-119.896,116.403 -121.768,116.367 -123.568,116.259C-124.433,116.259 -125.261,116.187 -126.125,116.115C-179.304,111.723 -103.982,61.388 -103.982,0C-103.982,-61.388 -179.304,-111.723 -126.125,-116.079C-125.441,-116.151 -124.757,-116.223 -124.072,-116.223L-123.929,-116.223C-123.785,-116.259 -123.677,-116.259 -123.568,-116.259C-123.172,-116.259 -122.776,-116.295 -122.38,-116.295C-120.976,-116.367 -119.499,-116.403 -118.06,-116.403L-117.915,-116.403C-116.44,-116.403 -114.963,-116.367 -113.523,-116.295C-113.163,-116.295 -112.803,-116.259 -112.443,-116.259C-111.579,-116.223 -110.715,-116.151 -109.887,-116.079C-56.743,-111.723 0,-61.388 0,0" style="fill-rule:nonzero;"/>
            </g>
        </g>
        <g transform="matrix(4.16667,0,0,4.16667,0,0)">
            <g transform="matrix(1,0,0,1,500.766,351.635)">
                <path d="M0,0C0,61.388 -56.743,111.723 -109.887,116.115C-110.751,116.187 -111.579,116.259 -112.443,116.259C-114.243,116.367 -116.079,116.403 -117.915,116.403L-118.06,116.403C-119.896,116.403 -121.768,116.367 -123.568,116.259C-124.433,116.259 -125.261,116.187 -126.125,116.115C-179.304,111.723 -103.982,61.388 -103.982,0C-103.982,-61.388 -179.304,-111.723 -126.125,-116.079C-125.441,-116.151 -124.757,-116.223 -124.072,-116.223L-123.929,-116.223C-123.785,-116.259 -123.677,-116.259 -123.568,-116.259C-123.172,-116.259 -122.776,-116.295 -122.38,-116.295C-120.976,-116.367 -119.499,-116.403 -118.06,-116.403L-117.915,-116.403C-116.44,-116.403 -114.963,-116.367 -113.523,-116.295C-113.163,-116.295 -112.803,-116.259 -112.443,-116.259C-111.579,-116.223 -110.715,-116.151 -109.887,-116.079C-56.743,-111.723 0,-61.388 0,0" style="fill-rule:nonzero;"/>
            </g>
        </g>
    </g>
</svg>
